<svg width="166" height="36" viewBox="0 0 166 36" fill="none" xmlns="http://www.w3.org/2000/svg">
<path d="M25.6109 12.2813C22.8822 11.1188 19.2159 10.3688 15.2984 10.1625C14.6734 10.125 14.0647 10.1125 13.4859 10.1125C16.3834 6.57502 19.4884 4.20002 21.5322 4.12502C21.9347 4.10877 22.2759 4.19377 22.5484 4.37002C23.4309 4.94252 23.6797 6.58002 23.2297 8.85752C23.1797 9.17002 23.3797 9.47377 23.6797 9.53252C23.9922 9.59502 24.2922 9.39502 24.3547 9.08252C24.9172 6.23252 24.5047 4.27502 23.1797 3.41002C22.7047 3.10002 22.1297 2.95377 21.4922 2.97752C18.9297 3.07377 15.3172 5.85252 12.0047 10.1275C10.5622 10.1713 9.20468 10.29 7.96468 10.4863C7.15718 6.86502 7.47718 4.26502 8.70718 3.64002C8.87968 3.54877 9.06343 3.50252 9.27843 3.48502C10.1497 3.41752 11.3534 3.97877 12.6659 5.07252C12.9084 5.27252 13.2734 5.24752 13.4734 4.99752C13.5215 4.93966 13.5576 4.87291 13.5798 4.80108C13.602 4.72924 13.6099 4.65373 13.6029 4.57886C13.596 4.50399 13.5743 4.43123 13.5392 4.36473C13.5041 4.29822 13.4563 4.23928 13.3984 4.19127C11.8234 2.88752 10.3709 2.25002 9.18343 2.33752C8.83462 2.36577 8.49418 2.45905 8.17968 2.61252C6.69218 3.37127 6.09218 5.52127 6.46718 8.66002C6.55468 9.31002 6.66718 9.98752 6.82968 10.685C2.72843 11.505 0.11593 13.1475 0.00342976 15.215C-0.0715702 16.6775 1.08468 18.07 3.35343 19.2425C3.42088 19.2835 3.49604 19.3101 3.57422 19.3207C3.6524 19.3313 3.73193 19.3258 3.80786 19.3043C3.8838 19.2829 3.95451 19.2461 4.0156 19.1961C4.07669 19.1462 4.12685 19.0842 4.16296 19.0141C4.19906 18.9439 4.22035 18.8671 4.22548 18.7884C4.23062 18.7096 4.2195 18.6307 4.19281 18.5564C4.16612 18.4822 4.12443 18.4142 4.07035 18.3568C4.01627 18.2993 3.95094 18.2536 3.87843 18.2225C2.06593 17.2888 1.09093 16.2375 1.14968 15.275C1.21218 13.925 3.36468 12.5375 7.09968 11.8C7.43718 13.0425 7.87468 14.34 8.41218 15.6625C7.13968 18.0225 6.21718 20.3463 5.74093 22.4125C5.04093 25.4938 5.41593 27.6875 6.81593 28.5975C7.26593 28.89 7.79093 29.035 8.37468 29.035C9.54343 29.035 10.9584 28.46 12.5584 27.32C12.6234 27.2781 12.6791 27.2234 12.7224 27.1593C12.7656 27.0952 12.7954 27.0231 12.81 26.9471C12.8246 26.8712 12.8237 26.7931 12.8073 26.7176C12.7908 26.642 12.7593 26.5706 12.7145 26.5075C12.6697 26.4445 12.6127 26.3912 12.5467 26.3508C12.4808 26.3105 12.4074 26.2839 12.3309 26.2727C12.2544 26.2615 12.1764 26.2659 12.1016 26.2856C12.0269 26.3053 11.9569 26.34 11.8959 26.3875C9.96593 27.7663 8.34093 28.2275 7.44343 27.6413C6.49343 27.0225 6.28593 25.2125 6.86843 22.6713C7.26843 20.9388 8.00218 19.0088 9.00343 17.0213C9.25343 17.5688 9.51593 18.1163 9.79093 18.6625C11.5722 22.1575 13.7534 25.1963 15.9284 27.2188C17.6609 28.8313 19.2709 29.6725 20.5972 29.6725C21.0347 29.6725 21.4472 29.5788 21.8172 29.3938C23.2484 28.6625 23.8672 26.6313 23.5647 23.675C23.2847 20.9088 22.2397 17.5375 20.6222 14.175C20.5539 14.0418 20.4364 13.9405 20.2946 13.8926C20.1528 13.8446 19.9979 13.8539 19.8629 13.9183C19.7278 13.9828 19.6232 14.0973 19.5712 14.2377C19.5193 14.3781 19.5241 14.5332 19.5847 14.67C22.9472 21.6725 23.1847 27.4075 21.2972 28.37C19.3097 29.3863 14.5172 25.4263 10.8097 18.145C10.3847 17.3263 10.0134 16.52 9.68468 15.7325C10.1097 14.9725 10.5597 14.2075 11.0534 13.445C11.5472 12.69 12.0609 11.96 12.5834 11.2638H13.0759C13.7509 11.2638 14.4834 11.2763 15.2434 11.3238C23.4059 11.7525 28.9622 14.5238 28.8484 16.7413C28.7984 17.6975 27.6934 18.6638 25.8172 19.3913C25.6762 19.4481 25.5631 19.558 25.5024 19.6973C25.4416 19.8367 25.4379 19.9943 25.4922 20.1363C25.5189 20.2068 25.5593 20.2713 25.6112 20.3261C25.663 20.3808 25.7253 20.4247 25.7943 20.4552C25.8632 20.4857 25.9376 20.5021 26.013 20.5036C26.0884 20.5051 26.1633 20.4915 26.2334 20.4638C28.6147 19.5388 29.9209 18.2688 29.9959 16.8013C30.0834 15.1388 28.5334 13.5388 25.6209 12.3013V12.2888L25.6109 12.2813ZM10.0909 12.8125C9.75343 13.3313 9.44093 13.8463 9.13593 14.3675C8.78939 13.46 8.48778 12.536 8.23218 11.5988C9.12343 11.4613 10.0884 11.3613 11.1197 11.2988C10.7697 11.7863 10.4272 12.2913 10.0947 12.8113V12.7988L10.0909 12.8125ZM14.9972 14.2813C14.5413 14.2813 14.1042 14.4624 13.7818 14.7847C13.4595 15.107 13.2784 15.5442 13.2784 16C13.2784 16.4559 13.4595 16.893 13.7818 17.2154C14.1042 17.5377 14.5413 17.7188 14.9972 17.7188C15.453 17.7188 15.8902 17.5377 16.2125 17.2154C16.5348 16.893 16.7159 16.4559 16.7159 16C16.7159 15.5442 16.5348 15.107 16.2125 14.7847C15.8902 14.4624 15.453 14.2813 14.9972 14.2813Z" fill="#B8B8B8"/>
<path d="M54.7324 21.2656L49.8809 9.24219L45.0293 21.2656H54.7324ZM59.918 29H57.8789L55.5059 23.1465H44.2559L41.8828 29H39.8438L49.8809 4.19727L59.918 29ZM76.6172 4.67188V6.57031H67.6875V29H65.7891V6.57031H56.7539V4.67188H76.6172ZM89.5195 6.06055C86.543 6.06055 84 7.10938 81.8906 9.20703C79.7812 11.3281 78.7266 13.8711 78.7266 16.8359C78.7266 19.8008 79.7812 22.3438 81.8906 24.4648C84 26.5625 86.543 27.6113 89.5195 27.6113C92.4844 27.6113 95.0215 26.5625 97.1309 24.4648C99.2402 22.3438 100.295 19.8008 100.295 16.8359C100.295 13.8711 99.2402 11.3281 97.1309 9.20703C95.0215 7.10938 92.4844 6.06055 89.5195 6.06055ZM89.5195 29.4746C87.7969 29.4746 86.1562 29.1465 84.5977 28.4902C83.0859 27.8457 81.75 26.9375 80.5898 25.7656C79.418 24.6055 78.5098 23.2695 77.8652 21.7578C77.1973 20.1875 76.8633 18.5469 76.8633 16.8359C76.8633 15.125 77.1973 13.4902 77.8652 11.9316C78.5098 10.4082 79.418 9.06641 80.5898 7.90625C81.75 6.73437 83.0859 5.83203 84.5977 5.19922C86.1562 4.53125 87.7969 4.19727 89.5195 4.19727C91.2305 4.19727 92.8652 4.53125 94.4238 5.19922C95.9355 5.83203 97.2715 6.73437 98.4316 7.90625C99.6152 9.06641 100.523 10.4082 101.156 11.9316C101.824 13.4902 102.158 15.125 102.158 16.8359C102.158 18.5469 101.824 20.1875 101.156 21.7578C100.523 23.2695 99.6152 24.6055 98.4316 25.7656C97.2715 26.9375 95.9355 27.8457 94.4238 28.4902C92.8652 29.1465 91.2305 29.4746 89.5195 29.4746ZM131.619 29H129.668L125.414 11.3867L118.172 29.1934L111.035 11.4043L106.799 29H104.848L110.596 5.12891L118.189 24.0957L125.889 5.14648L131.619 29ZM136.031 29V4.67188H137.93V29H136.031ZM162.979 28.877L144.891 9.64648V29H142.992V4.84766L161.08 24.0957V4.67188H162.979V28.877Z" fill="#B8B8B8"/>
</svg>
